<svg width="56" height="44" viewBox="0 0 56 44" fill="none" xmlns="http://www.w3.org/2000/svg">
<rect width="56" height="44" fill="black"/>
<g clip-path="url(#clip0_3239_4304)">
<path fill-rule="evenodd" clip-rule="evenodd" d="M23.4199 15L23.7034 14.5039L23.9913 14H24.5716H31.4288H32.0091L32.297 14.5039L32.5805 15H34.5002H35.6288L35.4929 16.1204L33.916 29.1204L33.8093 30H32.9233H23.0771H22.1911L22.0844 29.1204L20.5075 16.1204L20.3716 15H21.5002H23.4199ZM23.9632 28L22.6288 17H33.3716L32.0373 28H23.9632ZM29.0028 18.9288L28.5028 25.9288L30.4977 26.0712L30.9977 19.0712L29.0028 18.9288ZM25.5028 26.0712L25.0028 19.0712L26.9977 18.9288L27.4977 25.9288L25.5028 26.0712Z" fill="white"/>
</g>
<defs>
<clipPath id="clip0_3239_4304">
<rect width="16" height="16" fill="white" transform="translate(20 14)"/>
</clipPath>
</defs>
</svg>
